<svg width="20" height="20" viewBox="0 0 20 20" fill="none" xmlns="http://www.w3.org/2000/svg">
<path d="M3.05556 0C1.3779 0 0 1.3779 0 3.05556V16.9444C0 18.6221 1.3779 20 3.05556 20H16.9444C18.6221 20 20 18.6221 20 16.9444V3.05556C20 1.3779 18.6221 0 16.9444 0H3.05556ZM3.05556 1.66667H16.9444C17.7212 1.66667 18.3333 2.27876 18.3333 3.05556V16.9444C18.3333 17.7212 17.7212 18.3333 16.9444 18.3333H3.05556C2.27876 18.3333 1.66667 17.7212 1.66667 16.9444V3.05556C1.66667 2.27876 2.27876 1.66667 3.05556 1.66667ZM15.8171 5.54796C15.6006 5.55427 15.3952 5.64455 15.2441 5.7997L8.05556 12.9883L5.31142 10.2441C5.23463 10.1642 5.14265 10.1003 5.04088 10.0563C4.93911 10.0123 4.82958 9.98911 4.71871 9.98798C4.60785 9.98685 4.49787 10.0079 4.39522 10.0498C4.29258 10.0917 4.19933 10.1536 4.12093 10.232C4.04253 10.3104 3.98056 10.4037 3.93865 10.5063C3.89675 10.609 3.87574 10.719 3.87687 10.8298C3.878 10.9407 3.90123 11.0502 3.94522 11.152C3.9892 11.2538 4.05305 11.3457 4.13303 11.4225L7.46636 14.7559C7.62265 14.9121 7.83458 14.9998 8.05556 14.9998C8.27653 14.9998 8.48846 14.9121 8.64475 14.7559L16.4225 6.97808C16.5427 6.861 16.6248 6.71034 16.658 6.54584C16.6912 6.38134 16.6739 6.21065 16.6085 6.05611C16.5431 5.90157 16.4325 5.77038 16.2913 5.67972C16.1501 5.58905 15.9848 5.54313 15.8171 5.54796V5.54796Z" fill="#232A58"/>
</svg>
