<svg width="15" height="15" viewBox="0 0 15 15" fill="none" xmlns="http://www.w3.org/2000/svg">
<path d="M12.7083 0H2.29167C1.02833 0 0 1.02833 0 2.29167V12.7083C0 13.9717 1.02833 15 2.29167 15H12.7083C13.9717 15 15 13.9717 15 12.7083V2.29167C15 1.02833 13.9717 0 12.7083 0ZM12.3171 5.23375L6.48375 11.0671C6.36167 11.1892 6.20167 11.25 6.04167 11.25C5.88167 11.25 5.72167 11.1892 5.59958 11.0671L3.09958 8.56708C2.85542 8.32292 2.85542 7.9275 3.09958 7.68333C3.34375 7.43917 3.73917 7.43917 3.98333 7.68333L6.04125 9.74125L11.4325 4.35C11.6767 4.10583 12.0721 4.10583 12.3162 4.35C12.5604 4.59417 12.5608 4.98958 12.3171 5.23375Z" fill="#3366FF"/>
</svg>
