<svg width="21" height="27" viewBox="0 0 21 27" fill="none" xmlns="http://www.w3.org/2000/svg">
<path d="M7.875 0L6.5625 1.35H0V4.05H1.3125V24.3C1.3125 25.005 1.56362 25.7237 2.05847 26.2327C2.55332 26.7417 3.25208 27 3.9375 27H17.0625C17.7479 27 18.4467 26.7417 18.9415 26.2327C19.4364 25.7237 19.6875 25.005 19.6875 24.3V4.05H21V1.35H14.4375L13.125 0H7.875ZM3.9375 4.05H17.0625V24.3H3.9375V4.05ZM6.5625 6.75V21.6H9.1875V6.75H6.5625ZM11.8125 6.75V21.6H14.4375V6.75H11.8125Z" fill="#D7DBFF"/>
</svg>
