<svg width="34" height="27" viewBox="0 0 34 27" fill="none" xmlns="http://www.w3.org/2000/svg">
<path d="M19.6154 0C17.1328 0 14.6553 1.01451 12.9543 2.8125C12.4333 2.68192 11.7692 2.57143 11.1154 2.57143C7.19231 2.57143 3.92308 5.66518 3.92308 9.52232C1.56821 10.5519 0 12.8571 0 15.4286C0 19.0296 2.8759 21.8571 6.53846 21.8571H11.8918C11.8918 21.0837 11.7692 20.3153 11.7692 19.2857H6.53846C4.31641 19.2857 2.61538 17.6133 2.61538 15.4286C2.61538 13.6306 3.8107 12.0787 5.63942 11.692L6.78365 11.3304L6.53846 10.1652V9.64286C6.53846 7.20201 8.63281 5.14286 11.1154 5.14286C11.7692 5.14286 12.3005 5.2885 12.9543 5.54464L13.8534 5.90625L14.3846 5.14286C15.6923 3.601 17.521 2.57143 19.6154 2.57143C22.7518 2.57143 25.6379 4.87165 26.0312 7.95536L26.1538 8.87946L27.0529 9C29.5355 9.51228 31.3846 11.5815 31.3846 14.0223C31.3846 16.8499 29.0297 19.1652 26.1538 19.1652H22.2308C22.2308 20.1948 22.1082 20.9632 22.1082 21.7366H26.1538C30.4703 21.7366 34 18.2662 34 14.0223C34 10.808 31.7933 7.72935 28.524 6.83036C27.4769 2.84263 23.799 0 19.6154 0ZM16.7548 8.75893C16.6578 8.774 16.5352 8.81417 16.4688 8.87946C16.3359 9.01005 12.8062 12.2143 10.5841 15.4286C10.4513 15.6847 10.4615 15.9258 10.4615 16.3125C10.5944 16.5686 10.9775 16.7143 11.238 16.7143H13.976C13.976 16.7143 14.5328 25.9805 14.7933 26.2366C15.1866 26.7489 16.0907 27 16.8774 27C17.7918 27 18.8236 26.6233 19.0841 26.2366C19.3447 25.9805 19.738 16.7143 19.738 16.7143H22.6394C23.0328 16.7143 23.2831 16.5686 23.4159 16.3125C23.5487 15.9258 23.5487 15.6847 23.4159 15.4286C21.1938 12.2143 17.6641 9.01005 17.5312 8.87946C17.3984 8.74888 17.1328 8.75893 17 8.75893C16.9336 8.75893 16.8519 8.74386 16.7548 8.75893Z" fill="#3366FF"/>
</svg>
