<svg width="342" height="67" viewBox="0 0 342 67" fill="none" xmlns="http://www.w3.org/2000/svg">
<path d="M45.9618 66.8886C40.8215 66.7632 36.6159 66.504 36.6159 66.3124C36.6159 65.4391 41.8814 56.0287 44.4724 52.2714C47.0111 48.59 47.7098 47.9859 50.4095 47.1378C52.7611 46.399 53.5164 45.8556 53.6732 44.7896C53.8661 43.4779 53.7364 43.4263 51.2839 43.8385L48.6907 44.2743L50.1607 42.3142C52.744 38.5412 53.268 38.2765 52.2649 37.4484C51.4891 36.808 50.6945 37.4147 49.5516 38.5797C47.5898 40.6688 46.1456 41.087 46.6778 39.412C46.8642 38.8252 47.2647 37.0214 47.5679 35.4034C47.9957 33.1196 47.9357 32.3917 47.2995 32.1489C45.9532 31.635 45.3153 32.4072 43.9026 36.2613C43.1634 38.2781 42.3411 39.7091 42.0754 39.4415C41.8096 39.1738 41.5067 37.5831 41.4022 35.9067C41.3468 33.494 41.3473 32.6162 39.8333 32.6637C38.5234 32.4787 38.4544 32.6692 38.4544 36.4739C38.4544 40.8295 37.7919 41.5016 36.3095 38.6499C35.2482 36.6085 34.661 36.4058 33.5761 37.7063C32.7153 38.7379 33.1861 40.6498 34.8953 43.0639C36.7709 45.7128 36.9381 48.4338 35.4087 51.4159C33.2018 55.719 28.9234 62.0082 26.9476 63.8537L25.0917 65.587L22.8156 64.5126C19.9323 63.1516 17.2296 59.4711 16.6772 56.1537C16.4421 54.7413 15.9809 53.0771 15.6523 52.4555C14.9762 51.1763 8.75315 48.201 4.55327 47.149C3.01651 46.7641 1.29215 45.9358 0.721372 45.3085C-0.254885 44.2354 -0.2504 44.0674 0.796855 42.4757C1.40915 41.545 4.46298 38.2884 7.58312 35.2387L13.2561 29.6938L13.1873 23.0463C13.1306 17.579 13.3524 15.8036 14.4363 13.0459C16.2295 8.48391 18.7071 5.68077 22.611 3.7969C33.8899 -1.64569 61.6912 -1.17298 81.7555 4.80256C85.0121 5.77243 88.7078 8.6064 88.7078 10.1337C88.7078 10.9214 71.557 19.6462 68.0108 20.6625C67.2178 20.8898 65.4401 20.614 63.8809 20.0216C61.6654 19.18 60.9667 19.1274 60.2172 19.7461C58.8368 20.8857 59.0839 21.5721 61.1297 22.2816C62.1409 22.6322 62.9652 23.098 62.9615 23.3167C62.9578 23.5353 61.5099 24.2629 59.744 24.9335C57.9782 25.6041 56.3681 25.5287 56.7004 26.7624C56.9007 28.0675 58.3781 27.3651 60.2243 27.3566C62.0705 27.3482 63.1203 26.469 63.5811 27.4965C63.8122 28.0117 62.3401 28.7896 60.8233 30.1803C58.6033 32.2159 57.2038 33.8383 58.2478 34.8769C59.5429 36.1652 63.4517 32.8389 65.2664 31.5634C67.1624 30.2059 67.0592 31.4857 65.0627 34.0895C63.9904 35.4879 63.6085 36.5561 63.8783 37.4017C64.5272 39.4354 65.8952 38.8444 68.0195 35.6128C69.1176 33.9424 70.2228 32.5707 70.4756 32.5647C70.7284 32.5586 70.9353 33.4977 70.9353 34.6514C70.9353 39.5962 73.9507 37.4322 74.7049 31.9461C74.9866 29.8975 75.4986 27.698 75.8428 27.0582C76.8046 25.2706 91.1202 18.9002 92.0646 19.8396C92.9625 20.7327 94.8362 33.1716 94.8362 38.2387C94.8362 51.0989 90.2212 59.0151 80.0714 63.5651C77.9116 64.5334 74.664 65.6372 72.8545 66.018C68.8565 66.8595 58.5089 67.1945 45.9618 66.8886ZM156.216 39.3908C156.332 31.3268 156.267 24.4056 156.436 24.2408C158.435 24.2563 161.754 24.287 162.862 24.2664C162.862 24.6684 162.936 26.2913 162.936 26.2913C162.936 26.2913 164.015 25.8956 164.67 25.5588C167.472 23.7173 171.798 24.3714 174.215 25.8575C176.422 27.2139 178.163 30.3213 178.621 33.7186C179.647 41.3261 172.573 46.7334 166.151 45.0183L163.475 44.3036V49.3221V54.3405L156.261 54.3024C156.261 54.3024 156.129 44.132 156.216 39.3908V39.3908ZM169.827 38.6057C171.01 37.6798 171.442 36.7839 171.442 35.2528C171.442 31.4512 167.906 29.5354 164.837 31.6739C162.032 33.6284 163.042 39.3167 167.108 39.4501C167.736 39.4707 168.939 39.3006 169.827 38.6057ZM181.535 54.3158L182.015 24.1482L188.188 24.1915L188.305 26.5822C188.305 26.5822 189.508 25.5774 190.136 25.1046C191.905 23.7734 196.993 23.9988 199.439 25.4818C201.939 26.9981 203.896 31.298 203.896 34.9922C203.896 42.4753 197.723 47.2342 191.138 44.9774L188.412 43.6595L188.38 54.3871L181.535 54.3158ZM195.343 38.6499C197.101 36.9012 197.311 32.6159 195.494 31.35C192.425 29.2115 188.678 30.232 188.602 35.2528C188.602 36.7839 189.033 37.6798 190.216 38.6057C192.055 39.5658 193.758 39.6552 195.343 38.65V38.6499ZM209.593 53.9075L206.99 52.7322L209.154 48.0086L211.318 43.2851L209.22 38.3766C206.174 31.2482 204.306 25.8727 204.73 25.4511C205.216 24.9683 210.236 24.0604 210.732 24.3657C210.944 24.4959 212.017 27.0861 213.118 30.1218C214.218 33.1576 215.194 35.5638 215.286 35.4692C215.378 35.3745 216.469 32.7712 217.709 29.684L219.964 24.071C219.964 24.071 223.955 24.8391 225.924 25.3402C225.924 25.3402 224.889 29.5372 222.056 36.0301C214.927 52.3665 213.606 55.1105 212.88 55.0963C212.504 55.0889 211.025 54.554 209.593 53.9075ZM104.642 30.754V15.4844H108.253H111.864L112.302 21.5806L112.741 27.6768H117.884H123.027V21.8854V16.094H127.022H131.016L130.852 30.8773L130.688 45.6606L126.857 45.8421L123.027 46.0236V40.2031V34.3826H117.841H112.655L112.479 40.0216L112.302 45.6606L108.472 45.8421L104.642 46.0236V30.754ZM138.514 45.563C134.682 44.7531 133.233 38.0888 136.278 35.2816C138.225 33.4864 141.645 32.7533 143.981 33.6303C145.545 34.2175 145.702 34.1532 145.702 32.9275C145.702 32.1855 145.371 31.2492 144.967 30.8468C143.917 29.8024 140.706 29.9433 139.036 31.1071C137.683 32.05 137.534 32.0206 136.015 30.51L134.418 28.921L136.136 27.1372C139.305 23.847 146.301 23.3814 149.486 26.2487C151.978 28.4919 152.651 30.3469 152.444 38.01L152.254 45.0055L146.783 44.8702C146.783 44.8702 146.869 43.0279 146.705 42.9815C146.496 42.9222 145.74 43.8557 145.153 44.3844C142.863 45.9719 141.026 45.7383 138.514 45.563ZM144.775 40.9665C146.418 39.2948 145.683 37.4859 144.008 36.7267C142.208 35.9111 140.129 36.809 139.791 38.516C139.341 40.7957 143.05 42.6825 144.775 40.9665ZM228.593 45.2884C228.47 35.0183 228.398 15.5606 228.398 15.5606L249.262 15.4734C249.276 17.9206 249.273 19.5774 249.273 22.1902H242.532H235.791V25.7576V29.3249L246.279 29.2582L246.431 35.409C246.431 35.409 238.983 35.4216 235.938 35.3351L235.943 45.4178L228.593 45.2884ZM254.764 44.5616C245.239 39.5507 249.046 24.6757 259.865 24.6387C266.299 24.6167 270.069 28.1176 270.517 34.5318C270.739 37.7078 270.548 38.7527 269.372 40.7836C266.596 45.5774 259.959 47.294 254.764 44.5616ZM262.564 39.3902C264.826 37.9599 264.721 33.0635 262.396 31.5483C260.63 30.3972 257.491 30.949 256.622 32.5632C255.689 34.2981 255.9 37.5136 257.029 38.7543C258.056 39.8838 261.211 40.2462 262.564 39.3902ZM274.058 45.1789L274.132 24.4763L280.505 24.3883C280.505 24.3883 280.529 25.3631 280.529 25.8603V27.1557L282.143 25.8922C283.05 25.1825 284.662 24.4382 285.82 24.4382C287.811 24.4382 287.576 24.7121 287.576 27.0173C287.576 29.2907 287.717 30.3994 286.971 30.917C285.689 30.9643 284.096 30.7562 282.791 30.8545C282.071 30.9088 281.577 31.6017 281.238 32.0702C279.98 37.2803 280.855 45.1535 280.855 45.1535L274.058 45.1789ZM290.13 45.559C289.905 45.3354 289.721 40.5347 289.721 34.8906V24.6287H293.092C296.093 24.6287 296.462 24.7671 296.462 25.8922V27.1557L298.023 25.4072C300.222 23.687 304.322 24.1944 306.552 25.9393C307.561 26.7286 308.368 26.9954 308.626 26.6402C310.775 23.6846 315.45 23.9613 318.436 25.4974C321.585 27.1173 322.579 31.3164 321.911 40.1807L321.547 45.4916C319.408 45.9198 315.154 45.6606 315.154 45.6606L315.058 39.011C315.249 33.077 315.348 32.0985 314.177 30.9336C313.54 30.1097 312.028 29.3387 310.481 30.8773C309.411 31.9417 309.332 33.3666 309.332 38.9548V45.3558H305.962H302.591V38.6935C302.591 33.4497 302.386 31.8273 301.628 31.0733C300.337 29.7889 299.164 29.8667 297.688 31.3345C296.611 32.406 296.462 33.3666 296.462 39.2596V45.9654H293.5C291.871 45.9654 290.354 45.7825 290.13 45.559V45.559ZM327.133 45.0042C324.363 43.8088 324.444 43.986 325.505 41.4591C326.533 39.0118 326.754 38.9292 328.943 40.174C330.968 41.3252 334.839 41.3524 335.276 40.2186C335.723 39.0593 334.761 38.438 331.088 37.5152C326.812 36.4409 325.266 34.8416 325.266 31.493C325.266 28.1845 326.009 26.737 328.318 25.5494C331.281 23.4476 336.485 24.332 339.27 25.2979C341.441 26.0506 341.467 26.1251 340.51 28.8559C339.943 30.4738 339.586 30.756 338.518 30.4321C337.085 29.9975 335.496 28.9256 334.211 28.8573C332.925 28.7889 331.944 29.7244 331.728 30.0716C330.993 31.2555 332.514 32.3994 335.395 32.8292C339.785 33.1614 341.808 35.4002 341.813 39.0699C341.873 44.7121 336.957 45.9592 333.448 45.9415C331.122 45.9283 328.305 45.5102 327.133 45.0041V45.0042Z" fill="#F8F8F8"/>
</svg>
