<svg width="301" height="59" viewBox="0 0 301 59" fill="none" xmlns="http://www.w3.org/2000/svg">
<path d="M40.4738 58.9019C35.9473 58.7915 32.2438 58.5632 32.2438 58.3945C32.2438 57.6255 36.8807 49.3387 39.1623 46.0301C41.3979 42.7882 42.0131 42.2563 44.3904 41.5094C46.4613 40.8588 47.1263 40.3803 47.2644 39.4416C47.4343 38.2865 47.3201 38.2411 45.1605 38.604L42.8769 38.9878L44.1713 37.2618C46.4462 33.9392 46.9077 33.7062 46.0243 32.977C45.3412 32.413 44.6414 32.9473 43.635 33.9732C41.9074 35.8128 40.6356 36.1811 41.1043 34.7061C41.2685 34.1894 41.6212 32.6009 41.8881 31.1761C42.2649 29.1651 42.212 28.524 41.6518 28.3102C40.4662 27.8576 39.9045 28.5377 38.6605 31.9316C38.0095 33.7075 37.2854 34.9678 37.0514 34.732C36.8174 34.4963 36.5507 33.0956 36.4587 31.6193C36.4098 29.4947 36.4103 28.7217 35.0771 28.7636C33.9236 28.6006 33.8629 28.7684 33.8629 32.1188C33.8629 35.9543 33.2794 36.5462 31.974 34.035C31.0395 32.2374 30.5224 32.0589 29.567 33.204C28.809 34.1125 29.2236 35.7961 30.7287 37.9219C32.3803 40.2546 32.5276 42.6507 31.1808 45.2767C29.2374 49.066 25.4698 54.6043 23.7299 56.2293L22.0957 57.7557L20.0914 56.8096C17.5524 55.6111 15.1723 52.3701 14.6859 49.4488C14.4788 48.205 14.0727 46.7395 13.7834 46.1921C13.188 45.0657 7.70799 42.4457 4.00959 41.5193C2.65633 41.1803 1.13786 40.451 0.635238 39.8985C-0.224451 38.9536 -0.220501 38.8057 0.701708 37.404C1.24089 36.5844 3.93009 33.7167 6.67767 31.0311L11.6733 26.1483L11.6127 20.2945C11.5628 15.48 11.7581 13.9166 12.7126 11.4882C14.2916 7.4709 16.4734 5.00247 19.9112 3.34354C29.8433 -1.44919 54.3251 -1.03292 71.9937 4.22912C74.8614 5.08319 78.1158 7.57877 78.1158 8.92375C78.1158 9.61731 63.0128 17.3004 59.8901 18.1954C59.1918 18.3955 57.6264 18.1526 56.2533 17.631C54.3024 16.8898 53.6871 16.8436 53.0271 17.3884C51.8115 18.3919 52.0291 18.9964 53.8307 19.6211C54.7211 19.9299 55.447 20.34 55.4437 20.5326C55.4404 20.7252 54.1654 21.3658 52.6104 21.9564C51.0554 22.5469 49.6376 22.4805 49.9302 23.5668C50.1065 24.7162 51.4075 24.0976 53.0333 24.0902C54.6591 24.0827 55.5836 23.3085 55.9893 24.2133C56.1928 24.667 54.8965 25.352 53.5608 26.5767C51.6059 28.3692 50.3735 29.7979 51.2928 30.7125C52.4333 31.8469 55.8754 28.9178 57.4734 27.7946C59.143 26.5993 59.0521 27.7262 57.294 30.0191C56.3498 31.2506 56.0134 32.1912 56.251 32.9359C56.8224 34.7267 58.0272 34.2063 59.8978 31.3605C60.8647 29.8895 61.838 28.6817 62.0606 28.6764C62.2832 28.671 62.4654 29.498 62.4654 30.514C62.4654 34.8683 65.1208 32.9627 65.7849 28.1316C66.033 26.3276 66.4839 24.3908 66.7869 23.8274C67.6339 22.2532 80.2402 16.6434 81.0718 17.4707C81.8625 18.2572 83.5125 29.2108 83.5125 33.6729C83.5125 44.9975 79.4485 51.9686 70.5106 55.9753C68.6087 56.8279 65.7489 57.7999 64.1555 58.1353C60.6349 58.8763 51.5228 59.1713 40.4738 58.9019V58.9019ZM137.564 34.6874C137.666 27.5863 137.608 21.4915 137.757 21.3464C139.518 21.36 142.44 21.387 143.416 21.3689C143.416 21.7229 143.481 23.152 143.481 23.152C143.481 23.152 144.431 22.8036 145.008 22.507C147.475 20.8854 151.285 21.4614 153.414 22.7701C155.356 23.9645 156.89 26.7009 157.293 29.6925C158.197 36.3916 151.967 41.1533 146.312 39.643L143.956 39.0137V43.4329V47.8521L137.603 47.8185C137.603 47.8185 137.487 38.8625 137.564 34.6874V34.6874ZM149.549 33.9961C150.591 33.1807 150.971 32.3918 150.971 31.0435C150.971 27.6958 147.858 26.0088 145.155 27.8919C142.685 29.613 143.575 34.6222 147.155 34.7396C147.708 34.7578 148.767 34.608 149.549 33.9961ZM159.859 47.8303L160.282 21.2648L165.718 21.3029L165.821 23.4082C165.821 23.4082 166.88 22.5234 167.433 22.107C168.991 20.9348 173.472 21.1333 175.625 22.4392C177.827 23.7744 179.55 27.5609 179.55 30.814C179.55 37.4036 174.114 41.5943 168.315 39.607L165.915 38.4464L165.887 47.8931L159.859 47.8303ZM172.018 34.035C173.566 32.4951 173.751 28.7215 172.151 27.6067C169.448 25.7236 166.149 26.6222 166.082 31.0435C166.082 32.3918 166.462 33.1807 167.504 33.9961C169.123 34.8415 170.623 34.9202 172.018 34.035V34.035ZM184.567 47.4708L182.275 46.4358L184.18 42.2763L186.086 38.1167L184.239 33.7944C181.556 27.5171 179.912 22.7835 180.285 22.4121C180.712 21.987 185.133 21.1875 185.57 21.4563C185.756 21.571 186.702 23.852 187.671 26.5252C188.64 29.1984 189.499 31.3174 189.58 31.234C189.662 31.1507 190.622 28.8582 191.714 26.1396L193.7 21.1968C193.7 21.1968 197.214 21.8732 198.948 22.3145C198.948 22.3145 198.037 26.0103 195.542 31.728C189.264 46.1138 188.101 48.5301 187.462 48.5176C187.13 48.5111 185.828 48.0401 184.567 47.4708V47.4708ZM92.1472 27.0819V13.6355H95.327H98.5068L98.8931 19.0038L99.2793 24.3721H103.808H108.337V19.2722V14.1723H111.855H115.372L115.228 27.1904L115.083 40.2086L111.71 40.3684L108.337 40.5282V35.4027V30.2772H103.77H99.2034L99.0483 35.2429L98.8931 40.2086L95.5202 40.3684L92.1472 40.5282V27.0819ZM121.975 40.1227C118.601 39.4094 117.324 33.5409 120.006 31.0689C121.721 29.488 124.732 28.8425 126.789 29.6148C128.166 30.1319 128.305 30.0752 128.305 28.9959C128.305 28.3424 128.014 27.5179 127.658 27.1636C126.733 26.2439 123.906 26.368 122.435 27.3928C121.243 28.2232 121.112 28.1972 119.775 26.867L118.368 25.4678L119.881 23.8969C122.671 20.9996 128.832 20.5896 131.637 23.1145C133.831 25.0899 134.424 26.7234 134.241 33.4715L134.075 39.6317L129.256 39.5126C129.256 39.5126 129.332 37.8902 129.188 37.8493C129.004 37.7972 128.338 38.6192 127.821 39.0848C125.805 40.4827 124.187 40.277 121.975 40.1227V40.1227ZM127.489 36.075C128.935 34.6029 128.288 33.01 126.813 32.3414C125.228 31.6232 123.397 32.4139 123.1 33.917C122.703 35.9246 125.97 37.5861 127.489 36.075V36.075ZM201.298 39.8809C201.19 30.837 201.127 13.7026 201.127 13.7026L219.499 13.6258C219.511 15.7808 219.509 17.2398 219.509 19.5406H213.573H207.637V22.682V25.8235L216.872 25.7647L217.007 31.181C217.007 31.181 210.448 31.1922 207.766 31.116L207.771 39.9948L201.298 39.8809ZM224.345 39.2408C215.956 34.8282 219.31 21.7294 228.836 21.6968C234.502 21.6774 237.822 24.7603 238.217 30.4086C238.412 33.2054 238.244 34.1255 237.208 35.9139C234.764 40.1353 228.919 41.647 224.345 39.2408ZM231.213 34.6869C233.205 33.4273 233.112 29.1156 231.065 27.7813C229.51 26.7677 226.746 27.2536 225.981 28.6751C225.159 30.2028 225.345 33.0344 226.339 34.127C227.244 35.1215 230.022 35.4406 231.213 34.6869V34.6869ZM241.335 39.7844L241.4 21.5537L247.012 21.4763C247.012 21.4763 247.033 22.3347 247.033 22.7725V23.9132L248.455 22.8006C249.253 22.1756 250.672 21.5202 251.693 21.5202C253.445 21.5202 253.239 21.7614 253.239 23.7914C253.239 25.7933 253.363 26.7697 252.706 27.2254C251.577 27.2671 250.174 27.0838 249.025 27.1704C248.391 27.2182 247.955 27.8283 247.658 28.2409C246.55 32.8289 247.32 39.762 247.32 39.762L241.335 39.7844ZM255.487 40.1191C255.289 39.9223 255.128 35.6947 255.128 30.7246V21.6879H258.096C260.739 21.6879 261.064 21.8098 261.064 22.8006V23.9132L262.438 22.3735C264.374 20.8587 267.985 21.3055 269.949 22.8421C270.837 23.5371 271.548 23.772 271.776 23.4593C273.667 20.8566 277.784 21.1002 280.414 22.4529C283.187 23.8794 284.062 27.5772 283.474 35.383L283.153 40.0597C281.27 40.4368 277.524 40.2086 277.524 40.2086L277.439 34.353C277.608 29.1275 277.694 28.2659 276.663 27.24C276.102 26.5145 274.771 25.8356 273.409 27.1905C272.467 28.1278 272.397 29.3825 272.397 34.3034V39.9402H269.429H266.461V34.0734C266.461 29.4557 266.28 28.027 265.613 27.363C264.476 26.232 263.443 26.3006 262.143 27.5931C261.195 28.5366 261.064 29.3825 261.064 34.5719V40.477H258.456C257.021 40.477 255.685 40.3159 255.487 40.1191V40.1191ZM288.072 39.6305C285.633 38.5779 285.704 38.734 286.639 36.5088C287.544 34.3537 287.739 34.281 289.666 35.3771C291.449 36.3908 294.858 36.4148 295.243 35.4163C295.637 34.3955 294.789 33.8484 291.555 33.0358C287.79 32.0897 286.428 30.6814 286.428 27.7326C286.428 24.8192 287.083 23.5445 289.116 22.4987C291.725 20.6479 296.307 21.4267 298.76 22.2773C300.672 22.9401 300.694 23.0056 299.852 25.4104C299.352 26.8351 299.038 27.0836 298.098 26.7984C296.836 26.4157 295.437 25.4718 294.305 25.4116C293.173 25.3514 292.309 26.1752 292.119 26.481C291.471 27.5235 292.811 28.5308 295.348 28.9093C299.213 29.2018 300.995 31.1733 301 34.4048C301.052 39.3733 296.723 40.4715 293.633 40.456C291.585 40.4443 289.105 40.0761 288.072 39.6305V39.6305Z" fill="#3366FF"/>
</svg>
