<svg width="373" height="70" viewBox="0 0 373 70" fill="none" xmlns="http://www.w3.org/2000/svg">
<path d="M50.1168 69.8836C44.5119 69.7526 39.926 69.4818 39.926 69.2817C39.926 68.3692 45.6676 58.5374 48.4928 54.612C51.261 50.7657 52.0229 50.1346 54.9666 49.2484C57.5308 48.4765 58.3543 47.9088 58.5253 46.7951C58.7357 45.4247 58.5943 45.3708 55.9201 45.8014L53.0925 46.2567L54.6953 44.2089C57.5122 40.2669 58.0836 39.9904 56.9897 39.1252C56.1439 38.4561 55.2774 39.09 54.0311 40.3072C51.892 42.4898 50.3172 42.9267 50.8975 41.1767C51.1008 40.5636 51.5376 38.679 51.8681 36.9886C52.3346 34.6026 52.2692 33.8421 51.5755 33.5884C50.1074 33.0514 49.4119 33.8583 47.8715 37.8849C47.0654 39.992 46.1688 41.4872 45.8791 41.2075C45.5893 40.9278 45.259 39.2659 45.1451 37.5144C45.0846 34.9937 45.0852 34.0766 43.4343 34.1263C42.006 33.933 41.9308 34.132 41.9308 38.107C41.9308 42.6576 41.2084 43.3599 39.5919 40.3805C38.4347 38.2477 37.7945 38.0359 36.6114 39.3946C35.6728 40.4725 36.1862 42.4699 38.0499 44.9921C40.095 47.7597 40.2774 50.6025 38.6097 53.7181C36.2033 58.2139 31.5381 64.7847 29.3837 66.7128L27.3601 68.5238L24.8782 67.4012C21.7343 65.9793 18.7872 62.134 18.1849 58.668C17.9285 57.1924 17.4256 55.4536 17.0673 54.8042C16.3301 53.4677 9.54445 50.3593 4.96489 49.2602C3.28921 48.858 1.40896 47.9927 0.786585 47.3372C-0.277927 46.2161 -0.273037 46.0406 0.868893 44.3776C1.53654 43.4053 4.86644 40.0028 8.26865 36.8166L14.4545 31.0234L14.3794 24.0782C14.3177 18.3661 14.5595 16.5112 15.7414 13.6301C17.6967 8.86378 20.3982 5.93513 24.6551 3.96691C36.9536 -1.71938 67.2683 -1.2255 89.1464 5.0176C92.6973 6.0309 96.7271 8.99176 96.7271 10.5875C96.7271 11.4104 78.0258 20.5259 74.1591 21.5877C73.2944 21.8252 71.356 21.537 69.6558 20.9181C67.2401 20.0388 66.4782 19.9839 65.661 20.6303C64.1558 21.8209 64.4252 22.538 66.656 23.2792C67.7586 23.6456 68.6574 24.1322 68.6533 24.3607C68.6493 24.5892 67.0705 25.3493 65.145 26.0499C63.2195 26.7505 61.4639 26.6718 61.8263 27.9607C62.0446 29.3243 63.6555 28.5904 65.6687 28.5815C67.6818 28.5727 68.8265 27.6542 69.329 28.7277C69.5809 29.2659 67.9758 30.0787 66.3218 31.5317C63.9012 33.6584 62.3751 35.3535 63.5135 36.4385C64.9257 37.7845 69.1879 34.3093 71.1666 32.9767C73.2341 31.5585 73.1215 32.8955 70.9445 35.6159C69.7753 37.077 69.3588 38.1929 69.653 39.0765C70.3605 41.2011 71.8523 40.5837 74.1686 37.2074C75.3659 35.4622 76.5711 34.0291 76.8468 34.0228C77.1224 34.0164 77.3479 34.9976 77.3479 36.203C77.3479 41.3692 80.636 39.1082 81.4584 33.3765C81.7655 31.2362 82.3238 28.9382 82.6991 28.2698C83.7479 26.4021 99.3577 19.7464 100.387 20.7279C101.366 21.661 103.41 34.6568 103.41 39.9508C103.41 53.3869 98.3774 61.6576 87.31 66.4113C84.9549 67.4229 81.4138 68.5761 79.4407 68.9741C75.0813 69.8533 63.7983 70.2032 50.1168 69.8836V69.8836ZM170.339 41.1545C170.465 32.7295 170.394 25.4984 170.578 25.3262C172.758 25.3424 176.377 25.3744 177.585 25.353C177.585 25.7729 177.665 27.4685 177.665 27.4685C177.665 27.4685 178.843 27.0551 179.557 26.7032C182.611 24.7793 187.329 25.4626 189.965 27.0153C192.37 28.4324 194.27 31.679 194.769 35.2284C195.888 43.1765 188.173 48.8259 181.171 47.034L178.253 46.2874V51.5305V56.7737L170.387 56.7338C170.387 56.7338 170.243 46.108 170.339 41.1545V41.1545ZM185.18 40.3343C186.47 39.367 186.941 38.431 186.941 36.8313C186.941 32.8595 183.085 30.8579 179.739 33.0921C176.68 35.1341 177.782 41.0772 182.215 41.2165C182.9 41.238 184.211 41.0603 185.18 40.3343ZM197.946 56.7478L198.47 25.2294L205.201 25.2747L205.328 27.7724C205.328 27.7724 206.639 26.7227 207.325 26.2287C209.254 24.8379 214.802 25.0734 217.468 26.6228C220.194 28.2069 222.328 32.6994 222.328 36.559C222.328 44.3772 215.598 49.3492 208.417 46.9913L205.445 45.6144L205.41 56.8223L197.946 56.7478ZM213.002 40.3805C214.919 38.5535 215.148 34.0763 213.167 32.7538C209.82 30.5195 205.735 31.5856 205.652 36.8313C205.652 38.431 206.122 39.367 207.412 40.3343C209.418 41.3374 211.274 41.4308 213.002 40.3805V40.3805ZM228.541 56.3213L225.702 55.0933L228.062 50.1583L230.422 45.2233L228.134 40.095C224.812 32.6474 222.776 27.0312 223.238 26.5907C223.768 26.0862 229.241 25.1378 229.783 25.4567C230.014 25.5927 231.184 28.2989 232.384 31.4706C233.584 34.6422 234.648 37.1563 234.749 37.0573C234.849 36.9584 236.038 34.2385 237.391 31.0131L239.85 25.1488C239.85 25.1488 244.201 25.9513 246.348 26.4748C246.348 26.4748 245.22 30.8597 242.13 37.6433C234.357 54.7113 232.917 57.5781 232.125 57.5633C231.715 57.5556 230.102 56.9967 228.541 56.3213V56.3213ZM114.102 32.131V16.1777H118.039H121.976L122.455 22.5469L122.933 28.916H128.541H134.149V22.8653V16.8146H138.505H142.86L142.681 32.2599L142.502 47.7051L138.326 47.8947L134.149 48.0843V42.0032V35.9221H128.494H122.839L122.647 41.8136L122.455 47.7051L118.278 47.8947L114.102 48.0843V32.131ZM151.036 47.6032C146.858 46.757 145.277 39.7943 148.598 36.8614C150.721 34.9858 154.45 34.2199 156.997 35.1362C158.702 35.7497 158.874 35.6824 158.874 34.4019C158.874 33.6266 158.513 32.6484 158.072 32.228C156.927 31.1368 153.426 31.284 151.605 32.4999C150.129 33.4851 149.967 33.4543 148.311 31.8761L146.569 30.216L148.443 28.3523C151.898 24.9148 159.527 24.4283 163 27.424C165.717 29.7677 166.451 31.7057 166.225 39.712L166.018 47.0207L160.052 46.8794C160.052 46.8794 160.146 44.9545 159.967 44.906C159.74 44.8441 158.915 45.8194 158.275 46.3717C155.778 48.0303 153.775 47.7863 151.036 47.6032V47.6032ZM157.863 42.8008C159.654 41.0543 158.853 39.1644 157.026 38.3712C155.064 37.519 152.797 38.4572 152.429 40.2406C151.937 42.6224 155.982 44.5936 157.863 42.8008V42.8008ZM249.258 47.3163C249.124 36.5863 249.046 16.2573 249.046 16.2573L271.795 16.1663C271.811 18.723 271.808 20.454 271.808 23.1838H264.457H257.107V26.9109V30.638L268.543 30.5683L268.709 36.9944C268.709 36.9944 260.588 37.0076 257.267 36.9173L257.273 47.4515L249.258 47.3163ZM277.796 46.5569C267.409 41.3216 271.561 25.7806 283.357 25.7419C290.373 25.7189 294.484 29.3766 294.973 36.0781C295.215 39.3962 295.006 40.4879 293.724 42.6097C290.697 47.6181 283.46 49.4117 277.796 46.5569ZM286.301 41.154C288.767 39.6596 288.652 34.5439 286.117 32.9609C284.191 31.7583 280.769 32.3348 279.822 34.0213C278.804 35.8339 279.034 39.1933 280.265 40.4896C281.385 41.6696 284.825 42.0482 286.301 41.154V41.154ZM298.834 47.2018L298.914 25.5722L305.864 25.4803C305.864 25.4803 305.889 26.4988 305.889 27.0182V28.3716L307.65 27.0515C308.639 26.31 310.396 25.5324 311.659 25.5324C313.829 25.5324 313.574 25.8186 313.574 28.227C313.574 30.6022 313.727 31.7606 312.914 32.3013C311.516 32.3508 309.778 32.1333 308.356 32.236C307.57 32.2928 307.032 33.0167 306.663 33.5062C305.291 38.9496 306.245 47.1753 306.245 47.1753L298.834 47.2018ZM316.358 47.5989C316.113 47.3654 315.913 42.3497 315.913 36.4529V25.7315H319.588C322.861 25.7315 323.263 25.8761 323.263 27.0515V28.3716L324.965 26.5449C327.362 24.7476 331.833 25.2777 334.265 27.1008C335.365 27.9254 336.245 28.2041 336.527 27.833C338.87 24.7451 343.967 25.0342 347.223 26.6391C350.657 28.3315 351.741 32.7187 351.012 41.9799L350.615 47.5285C348.283 47.9759 343.645 47.7051 343.645 47.7051L343.539 40.7578C343.748 34.5581 343.856 33.5358 342.579 32.3187C341.885 31.4579 340.236 30.6524 338.549 32.2599C337.383 33.3719 337.296 34.8606 337.296 40.699V47.3866H333.621H329.946V40.426C329.946 34.9475 329.722 33.2524 328.896 32.4646C327.488 31.1228 326.209 31.204 324.6 32.7376C323.425 33.857 323.263 34.8606 323.263 41.0175V48.0235H320.033C318.257 48.0235 316.603 47.8325 316.358 47.5989V47.5989ZM356.706 47.0193C353.686 45.7704 353.774 45.9556 354.932 43.3155C356.053 40.7586 356.293 40.6723 358.68 41.9728C360.888 43.1756 365.109 43.204 365.586 42.0194C366.073 40.8083 365.024 40.1591 361.019 39.195C356.357 38.0726 354.671 36.4017 354.671 32.9031C354.671 29.4465 355.481 27.9342 357.999 26.6934C361.229 24.4975 366.903 25.4215 369.941 26.4307C372.308 27.217 372.336 27.2948 371.292 30.148C370.674 31.8383 370.285 32.1331 369.12 31.7947C367.558 31.3407 365.825 30.2208 364.424 30.1494C363.022 30.078 361.952 31.0553 361.717 31.4181C360.915 32.655 362.574 33.8501 365.715 34.2992C370.502 34.6462 372.709 36.9853 372.714 40.8193C372.779 46.7141 367.418 48.017 363.592 47.9986C361.056 47.9848 357.985 47.548 356.706 47.0193V47.0193Z" fill="#3366FF"/>
</svg>
