<svg width="28" height="28" viewBox="0 0 28 28" fill="none" xmlns="http://www.w3.org/2000/svg">
<path d="M18.2549 6.67224e-05C18.1979 0.00146726 18.1411 0.00704584 18.0849 0.0167576H4.28848C1.94235 0.0167576 0.0154132 1.94361 0.0154132 4.28962V18.0823C-0.00513773 18.2075 -0.00513773 18.3351 0.0154132 18.4602V23.7117C0.0154132 26.0577 1.94235 27.9846 4.28848 27.9846H18.0819C18.207 28.0051 18.3346 28.0051 18.4597 27.9846H23.7115C26.0576 27.9846 27.9846 26.0577 27.9846 23.7117V18.4647C28.0051 18.3396 28.0051 18.212 27.9846 18.0869V4.28962C27.9846 1.94361 26.0576 0.0167576 23.7115 0.0167576H18.4643C18.3951 0.00490226 18.325 -0.000684041 18.2549 6.67224e-05ZM4.28848 2.34741H8.56155V8.56248H2.34618V4.28962C2.34618 3.20336 3.20217 2.34741 4.28848 2.34741ZM10.8923 2.34741H17.1077V8.56248H10.8923V2.34741ZM19.4384 2.34741H23.7115C24.7978 2.34741 25.6538 3.20336 25.6538 4.28962V8.56248H19.4384V2.34741ZM2.34618 10.8931H8.56155V17.1082H2.34618V10.8931ZM10.8923 10.8931H17.1077V17.1082H10.8923V10.8931ZM19.4384 10.8931H25.6538V17.1082H19.4384V10.8931ZM2.34618 19.4389H8.56155V25.6539H4.28848C3.20217 25.6539 2.34618 24.798 2.34618 23.7117V19.4389ZM10.8923 19.4389H17.1077V25.6539H10.8923V19.4389ZM19.4384 19.4389H25.6538V23.7117C25.6538 24.798 24.7978 25.6539 23.7115 25.6539H19.4384V19.4389Z" fill="#3366FF"/>
</svg>
