<svg width="194" height="37" viewBox="0 0 194 37" fill="none" xmlns="http://www.w3.org/2000/svg">
<path d="M26.0861 36.3748C23.1687 36.3067 20.7817 36.1657 20.7817 36.0615C20.7817 35.5866 23.7703 30.4691 25.2408 28.4259C26.6817 26.4239 27.0782 26.0953 28.6104 25.6341C29.9451 25.2323 30.3738 24.9368 30.4628 24.3571C30.5723 23.6438 30.4987 23.6158 29.1068 23.8399L27.6349 24.0769L28.4692 23.011C29.9355 20.9592 30.2328 20.8153 29.6635 20.3649C29.2232 20.0166 28.7722 20.3466 28.1235 20.9801C27.0101 22.1162 26.1904 22.3436 26.4925 21.4327C26.5983 21.1136 26.8256 20.1327 26.9977 19.2528C27.2405 18.0109 27.2064 17.615 26.8454 17.483C26.0812 17.2035 25.7192 17.6234 24.9174 19.7193C24.4978 20.8161 24.0311 21.5943 23.8803 21.4487C23.7295 21.3032 23.5576 20.4382 23.4983 19.5265C23.4668 18.2144 23.4671 17.7371 22.6078 17.7629C21.8644 17.6623 21.8252 17.7659 21.8252 19.8349C21.8252 22.2036 21.4492 22.5691 20.6078 21.0183C20.0055 19.9082 19.6722 19.7979 19.0565 20.5051C18.5679 21.0662 18.8351 22.1059 19.8052 23.4187C20.8697 24.8592 20.9646 26.3389 20.0966 27.9606C18.844 30.3007 16.4158 33.7208 15.2944 34.7244L14.2411 35.667L12.9492 35.0828C11.3128 34.3426 9.77885 32.3411 9.46535 30.5371C9.33187 29.769 9.07011 28.864 8.88366 28.5259C8.49993 27.8303 4.96794 26.2123 2.58426 25.6402C1.71205 25.4309 0.733375 24.9805 0.409422 24.6393C-0.144663 24.0558 -0.142117 23.9644 0.452264 23.0988C0.799778 22.5927 2.53301 20.8217 4.30388 19.1632L7.52364 16.1479L7.48458 12.5329C7.45244 9.55965 7.5783 8.59418 8.1935 7.09452C9.21122 4.61365 10.6174 3.08927 12.8331 2.0648C19.2346 -0.894949 35.0135 -0.637879 46.4012 2.61169C48.2495 3.13912 50.3471 4.68027 50.3471 5.51086C50.3471 5.93917 40.6129 10.6838 38.6003 11.2365C38.1502 11.3602 37.1412 11.2101 36.2563 10.888C34.9989 10.4303 34.6023 10.4017 34.1769 10.7382C33.3935 11.3579 33.5337 11.7312 34.6948 12.117C35.2688 12.3077 35.7366 12.561 35.7345 12.6799C35.7324 12.7988 34.9106 13.1945 33.9084 13.5591C32.9061 13.9238 31.9923 13.8828 32.1809 14.5537C32.2946 15.2635 33.1331 14.8815 34.181 14.8769C35.2288 14.8723 35.8246 14.3942 36.0861 14.9529C36.2173 15.2331 35.3818 15.6561 34.5209 16.4124C33.261 17.5194 32.4666 18.4017 33.0592 18.9665C33.7942 19.6671 36.0127 17.8582 37.0427 17.1646C38.1188 16.4264 38.0602 17.1223 36.927 18.5383C36.3184 19.2988 36.1017 19.8796 36.2548 20.3395C36.6231 21.4454 37.3996 21.1241 38.6052 19.3667C39.2284 18.4583 39.8557 17.7124 39.9992 17.7091C40.1427 17.7058 40.2601 18.2165 40.2601 18.8439C40.2601 21.5329 41.9715 20.3561 42.3996 17.3727C42.5595 16.2586 42.8501 15.0625 43.0454 14.7146C43.5913 13.7424 51.7163 10.2781 52.2523 10.789C52.7619 11.2747 53.8253 18.0391 53.8253 20.7947C53.8253 27.7882 51.206 32.0932 45.4454 34.5675C44.2196 35.094 42.3764 35.6943 41.3494 35.9014C39.0803 36.359 33.2074 36.5412 26.0861 36.3748V36.3748ZM88.6624 21.4212C88.7281 17.0359 88.6911 13.272 88.7868 13.1825C89.9216 13.1909 91.8052 13.2075 92.4342 13.1964C92.4342 13.415 92.4759 14.2975 92.4759 14.2975C92.4759 14.2975 93.0887 14.0823 93.4604 13.8992C95.0503 12.8978 97.5058 13.2535 98.8778 14.0616C100.13 14.7992 101.118 16.4891 101.378 18.3366C101.961 22.4736 97.9454 25.4142 94.3007 24.4815L92.782 24.0929V26.822V29.551L88.6874 29.5303C88.6874 29.5303 88.6126 23.9995 88.6624 21.4212V21.4212ZM96.3872 20.9942C97.0588 20.4907 97.3037 20.0035 97.3037 19.1709C97.3037 17.1035 95.297 16.0617 93.555 17.2246C91.9629 18.2875 92.5365 21.3809 94.8438 21.4534C95.2004 21.4646 95.8832 21.3722 96.3872 20.9942ZM103.032 29.5376L103.305 13.1321L106.808 13.1556L106.875 14.4557C106.875 14.4557 107.557 13.9093 107.914 13.6522C108.918 12.9283 111.806 13.0509 113.194 13.8573C114.613 14.6819 115.723 17.0202 115.723 19.0292C115.723 23.0986 112.22 25.6866 108.482 24.4593L106.935 23.7426L106.917 29.5764L103.032 29.5376ZM110.869 21.0183C111.867 20.0673 111.986 17.7369 110.955 17.0485C109.213 15.8856 107.086 16.4405 107.043 19.1709C107.043 20.0035 107.288 20.4907 107.959 20.9942C109.003 21.5164 109.969 21.565 110.869 21.0183V21.0183ZM118.957 29.3156L117.479 28.6764L118.708 26.1077L119.936 23.539L118.745 20.8697C117.016 16.9932 115.956 14.0699 116.197 13.8406C116.472 13.5781 119.321 13.0844 119.603 13.2504C119.723 13.3212 120.333 14.7298 120.957 16.3806C121.582 18.0315 122.136 19.3401 122.188 19.2886C122.24 19.2371 122.859 17.8214 123.563 16.1425L124.843 13.0901C124.843 13.0901 127.108 13.5078 128.226 13.7803C128.226 13.7803 127.638 16.0627 126.03 19.5936C121.984 28.4775 121.235 29.9698 120.822 29.962C120.609 29.958 119.769 29.6671 118.957 29.3156V29.3156ZM59.3906 16.7244V8.4206H61.44H63.4894L63.7384 11.7358L63.9873 15.051H66.9064H69.8254V11.9015V8.75212H72.0924H74.3595L74.2664 16.7914L74.1732 24.8308L71.9993 24.9295L69.8254 25.0282V21.8629V18.6977H66.8819H63.9384L63.8384 21.7642L63.7384 24.8308L61.5645 24.9295L59.3906 25.0282V16.7244ZM78.6149 24.7777C76.4403 24.3373 75.6178 20.7132 77.346 19.1866C78.4512 18.2103 80.3922 17.8117 81.718 18.2886C82.6056 18.6079 82.695 18.5729 82.695 17.9064C82.695 17.5029 82.5072 16.9937 82.2776 16.7749C81.6817 16.2069 79.8594 16.2835 78.9114 16.9164C78.1433 17.4292 78.0588 17.4132 77.1969 16.5917L76.2903 15.7276L77.2654 14.7575C79.0639 12.9683 83.0347 12.7151 84.8425 14.2744C86.2567 15.4943 86.639 16.503 86.5211 20.6703L86.4135 24.4746L83.3082 24.401C83.3082 24.401 83.3569 23.3991 83.264 23.3738C83.1455 23.3416 82.7164 23.8493 82.383 24.1368C81.0835 25.0001 80.0406 24.8731 78.6149 24.7777V24.7777ZM82.1689 22.2781C83.1009 21.369 82.6839 20.3853 81.7332 19.9724C80.7118 19.5289 79.5317 20.0172 79.3402 20.9455C79.0843 22.1852 81.1898 23.2112 82.1689 22.2781V22.2781ZM129.74 24.6284C129.671 19.0434 129.63 8.46204 129.63 8.46204L141.471 8.41463C141.479 9.74544 141.478 10.6464 141.478 12.0673H137.652H133.826V14.0073V15.9473L139.778 15.911L139.865 19.2558C139.865 19.2558 135.638 19.2627 133.909 19.2157L133.912 24.6988L129.74 24.6284ZM144.594 24.2331C139.188 21.5081 141.349 13.419 147.489 13.3988C151.141 13.3869 153.281 15.2907 153.535 18.7788C153.661 20.506 153.552 21.0742 152.885 22.1786C151.31 24.7855 147.543 25.7191 144.594 24.2331ZM149.021 21.4209C150.305 20.643 150.245 17.9803 148.926 17.1563C147.923 16.5304 146.142 16.8305 145.649 17.7083C145.119 18.6518 145.239 20.4004 145.88 21.0751C146.463 21.6893 148.253 21.8864 149.021 21.4209V21.4209ZM155.545 24.5688L155.587 13.3105L159.204 13.2627C159.204 13.2627 159.217 13.7928 159.217 14.0632V14.7676L160.133 14.0805C160.648 13.6945 161.563 13.2898 162.22 13.2898C163.35 13.2898 163.217 13.4387 163.217 14.6923C163.217 15.9286 163.297 16.5316 162.874 16.813C162.146 16.8388 161.242 16.7256 160.501 16.779C160.092 16.8086 159.812 17.1854 159.62 17.4402C158.906 20.2735 159.402 24.555 159.402 24.555L155.545 24.5688ZM164.666 24.7755C164.539 24.654 164.434 22.0433 164.434 18.9739V13.3934H166.347C168.051 13.3934 168.26 13.4686 168.26 14.0805V14.7676L169.146 13.8168C170.394 12.8813 172.721 13.1572 173.987 14.1061C174.559 14.5353 175.018 14.6804 175.164 14.4873C176.384 12.88 179.037 13.0304 180.732 13.8658C182.519 14.7467 183.083 17.0303 182.704 21.8508L182.497 24.7389C181.283 24.9717 178.869 24.8308 178.869 24.8308L178.814 21.2147C178.923 17.9877 178.979 17.4556 178.314 16.8221C177.953 16.374 177.095 15.9548 176.217 16.7915C175.61 17.3703 175.565 18.1452 175.565 21.1841V24.665H173.652H171.739V21.042C171.739 18.1904 171.622 17.3081 171.192 16.898C170.459 16.1996 169.794 16.2419 168.956 17.0401C168.345 17.6228 168.26 18.1452 168.26 21.3498V24.9965H166.579C165.655 24.9965 164.794 24.8971 164.666 24.7755V24.7755ZM185.668 24.4738C184.096 23.8238 184.142 23.9201 184.744 22.546C185.328 21.2151 185.453 21.1702 186.695 21.8471C187.844 22.4731 190.041 22.488 190.29 21.8713C190.543 21.241 189.997 20.903 187.913 20.4012C185.486 19.817 184.608 18.9473 184.608 17.1263C184.608 15.3271 185.03 14.5399 186.341 13.8941C188.022 12.7511 190.975 13.232 192.556 13.7573C193.788 14.1666 193.803 14.2071 193.26 15.6922C192.938 16.572 192.736 16.7255 192.129 16.5493C191.316 16.313 190.414 15.7301 189.685 15.6929C188.955 15.6558 188.398 16.1645 188.276 16.3533C187.858 16.9971 188.722 17.6192 190.357 17.8529C192.849 18.0336 193.997 19.2511 194 21.2467C194.034 24.315 191.243 24.9932 189.252 24.9836C187.932 24.9764 186.333 24.749 185.668 24.4738V24.4738Z" fill="#3366FF"/>
</svg>
