<svg width="28" height="19" viewBox="0 0 28 19" fill="none" xmlns="http://www.w3.org/2000/svg">
<path d="M1.57522 0.000132988C1.36941 -0.00235909 1.16508 0.0301957 0.974102 0.0959053C0.78312 0.161615 0.609296 0.259169 0.46273 0.382898C0.316165 0.506627 0.199782 0.654063 0.120345 0.816639C0.0409071 0.979214 0 1.15369 0 1.32992C0 1.50615 0.0409071 1.68062 0.120345 1.84319C0.199782 2.00577 0.316165 2.15321 0.46273 2.27693C0.609296 2.40066 0.78312 2.49822 0.974102 2.56393C1.16508 2.62964 1.36941 2.66219 1.57522 2.6597H26.4248C26.6306 2.66219 26.8349 2.62964 27.0259 2.56393C27.2169 2.49822 27.3907 2.40066 27.5373 2.27693C27.6838 2.15321 27.8002 2.00577 27.8797 1.84319C27.9591 1.68062 28 1.50615 28 1.32992C28 1.15369 27.9591 0.979214 27.8797 0.816639C27.8002 0.654063 27.6838 0.506627 27.5373 0.382898C27.3907 0.259169 27.2169 0.161615 27.0259 0.0959053C26.8349 0.0301957 26.6306 -0.00235909 26.4248 0.000132988H1.57522Z" fill="#3366FF"/>
<path d="M0.974102 5.48145C1.16508 5.41574 1.36941 5.38319 1.57522 5.38568H26.4248C26.6306 5.38319 26.8349 5.41574 27.0259 5.48145C27.2169 5.54716 27.3907 5.64472 27.5373 5.76845C27.6838 5.89217 27.8002 6.03961 27.8797 6.20219C27.9591 6.36476 28 6.53924 28 6.71547C28 6.89169 27.9591 7.06617 27.8797 7.22874C27.8002 7.39132 27.6838 7.53875 27.5373 7.66248C27.3907 7.78621 27.2169 7.88376 27.0259 7.94947C26.8349 8.01518 26.6306 8.04774 26.4248 8.04525H1.57522C1.36941 8.04774 1.16508 8.01518 0.974102 7.94947C0.78312 7.88376 0.609296 7.78621 0.46273 7.66248C0.316165 7.53875 0.199782 7.39132 0.120345 7.22874C0.0409071 7.06617 0 6.89169 0 6.71547C0 6.53924 0.0409071 6.36476 0.120345 6.20219C0.199782 6.03961 0.316165 5.89217 0.46273 5.76845C0.609296 5.64472 0.78312 5.54716 0.974102 5.48145Z" fill="#3366FF"/>
<path d="M0.974102 10.7342C1.16508 10.6685 1.36941 10.6359 1.57522 10.6384H26.4248C26.6306 10.6359 26.8349 10.6685 27.0259 10.7342C27.2169 10.7999 27.3907 10.8974 27.5373 11.0212C27.6838 11.1449 27.8002 11.2923 27.8797 11.4549C27.9591 11.6175 28 11.792 28 11.9682C28 12.1444 27.9591 12.3189 27.8797 12.4815C27.8002 12.644 27.6838 12.7915 27.5373 12.9152C27.3907 13.0389 27.2169 13.1365 27.0259 13.2022C26.8349 13.2679 26.6306 13.3005 26.4248 13.298H1.57522C1.36941 13.3005 1.16508 13.2679 0.974102 13.2022C0.78312 13.1365 0.609296 13.0389 0.46273 12.9152C0.316165 12.7915 0.199782 12.644 0.120345 12.4815C0.0409071 12.3189 0 12.1444 0 11.9682C0 11.792 0.0409071 11.6175 0.120345 11.4549C0.199782 11.2923 0.316165 11.1449 0.46273 11.0212C0.609296 10.8974 0.78312 10.7999 0.974102 10.7342Z" fill="#3366FF"/>
<path d="M1.43683 16.4361C1.62781 16.3704 1.83214 16.3378 2.03795 16.3403H19.122C19.3278 16.3378 19.5322 16.3704 19.7231 16.4361C19.9141 16.5018 20.0879 16.5993 20.2345 16.7231C20.3811 16.8468 20.4975 16.9942 20.5769 17.1568C20.6563 17.3194 20.6972 17.4939 20.6972 17.6701C20.6972 17.8463 20.6563 18.0208 20.5769 18.1834C20.4975 18.3459 20.3811 18.4934 20.2345 18.6171C20.0879 18.7408 19.9141 18.8384 19.7231 18.9041C19.5322 18.9698 19.3278 19.0024 19.122 18.9999H2.03795C1.83214 19.0024 1.62781 18.9698 1.43683 18.9041C1.24585 18.8384 1.07203 18.7408 0.92546 18.6171C0.778895 18.4934 0.662512 18.3459 0.583075 18.1834C0.503637 18.0208 0.46273 17.8463 0.46273 17.6701C0.46273 17.4939 0.503637 17.3194 0.583075 17.1568C0.662512 16.9942 0.778895 16.8468 0.92546 16.7231C1.07203 16.5993 1.24585 16.5018 1.43683 16.4361Z" fill="#3366FF"/>
</svg>
