<svg width="28" height="8" viewBox="0 0 28 8" fill="none" xmlns="http://www.w3.org/2000/svg">
<path d="M0.974102 0.0917565C1.16508 0.0288896 1.36941 -0.00225703 1.57522 0.000127235H26.4248C26.6306 -0.00225703 26.8349 0.0288896 27.0259 0.0917565C27.2169 0.154623 27.3907 0.247958 27.5373 0.366334C27.6838 0.48471 27.8002 0.625767 27.8797 0.78131C27.9591 0.936852 28 1.10378 28 1.27238C28 1.44099 27.9591 1.60791 27.8797 1.76346C27.8002 1.919 27.6838 2.06006 27.5373 2.17843C27.3907 2.29681 27.2169 2.39014 27.0259 2.45301C26.8349 2.51588 26.6306 2.54702 26.4248 2.54464H1.57522C1.36941 2.54702 1.16508 2.51588 0.974102 2.45301C0.78312 2.39014 0.609296 2.29681 0.46273 2.17843C0.316165 2.06006 0.199782 1.919 0.120345 1.76346C0.0409071 1.60791 0 1.44099 0 1.27238C0 1.10378 0.0409071 0.936852 0.120345 0.78131C0.199782 0.625767 0.316165 0.48471 0.46273 0.366334C0.609296 0.247958 0.78312 0.154623 0.974102 0.0917565Z" fill="#3366FF"/>
<path d="M1.43683 5.54699C1.62781 5.48412 1.83214 5.45297 2.03795 5.45536H19.122C19.3278 5.45297 19.5322 5.48412 19.7231 5.54699C19.9141 5.60986 20.0879 5.70319 20.2345 5.82156C20.3811 5.93994 20.4975 6.081 20.5769 6.23654C20.6563 6.39208 20.6972 6.55901 20.6972 6.72762C20.6972 6.89622 20.6563 7.06315 20.5769 7.21869C20.4975 7.37423 20.3811 7.51529 20.2345 7.63367C20.0879 7.75204 19.9141 7.84537 19.7231 7.90824C19.5322 7.97111 19.3278 8.00226 19.122 7.99987H2.03795C1.83214 8.00226 1.62781 7.97111 1.43683 7.90824C1.24585 7.84537 1.07203 7.75204 0.92546 7.63367C0.778895 7.51529 0.662512 7.37423 0.583075 7.21869C0.503637 7.06315 0.46273 6.89622 0.46273 6.72762C0.46273 6.55901 0.503637 6.39208 0.583075 6.23654C0.662512 6.081 0.778895 5.93994 0.92546 5.82156C1.07203 5.70319 1.24585 5.60986 1.43683 5.54699Z" fill="#3366FF"/>
</svg>
