<svg width="28" height="28" viewBox="0 0 28 28" fill="none" xmlns="http://www.w3.org/2000/svg">
<path d="M7.53846 0C6.89063 0 6.46154 0.429087 6.46154 1.07692V4.30769C6.46154 4.95553 6.89063 5.38461 7.53846 5.38461C8.1863 5.38461 8.61538 4.95553 8.61538 4.30769V1.07692C8.61538 0.429087 8.1863 0 7.53846 0ZM20.4615 0C19.8137 0 19.3846 0.429087 19.3846 1.07692V4.30769C19.3846 4.95553 19.8137 5.38461 20.4615 5.38461C21.1094 5.38461 21.5385 4.95553 21.5385 4.30769V1.07692C21.5385 0.429087 21.1094 0 20.4615 0ZM3.23077 2.15385C1.40084 2.15385 0 3.55469 0 5.38461V24.7692C0 26.5992 1.40084 28 3.23077 28H24.7692C26.5992 28 28 26.5992 28 24.7692V5.38461C28 3.55469 26.5992 2.15385 24.7692 2.15385H22.6154V4.30769C22.6154 5.49399 21.6478 6.46154 20.4615 6.46154C19.2752 6.46154 18.3077 5.49399 18.3077 4.30769V2.15385H9.69231V4.30769C9.69231 5.49399 8.72476 6.46154 7.53846 6.46154C6.35216 6.46154 5.38461 5.49399 5.38461 4.30769V2.15385H3.23077ZM2.15385 9.69231H25.8462V24.7692C25.8462 25.4171 25.4171 25.8462 24.7692 25.8462H3.23077C2.58293 25.8462 2.15385 25.4171 2.15385 24.7692V9.69231Z" fill="#3366FF"/>
</svg>
