<svg width="17" height="20" viewBox="0 0 17 20" fill="none" xmlns="http://www.w3.org/2000/svg">
<path d="M6.8 0C6.35508 0 5.9002 0.152995 5.57813 0.46875C5.25606 0.784505 5.1 1.23047 5.1 1.66667V2.5H0V4.16667H0.85V17.5C0.85 18.8704 2.00215 20 3.4 20H13.6C14.9979 20 16.15 18.8704 16.15 17.5V4.16667H17V2.5H11.9V1.66667C11.9 1.23047 11.7439 0.784505 11.4219 0.46875C11.0998 0.152995 10.6449 0 10.2 0H6.8ZM6.8 1.66667H10.2V2.5H6.8V1.66667ZM2.55 4.16667H14.45V17.5C14.45 17.9622 14.0715 18.3333 13.6 18.3333H3.4C2.92852 18.3333 2.55 17.9622 2.55 17.5V4.16667ZM4.25 6.66667V15.8333H5.95V6.66667H4.25ZM7.65 6.66667V15.8333H9.35V6.66667H7.65ZM11.05 6.66667V15.8333H12.75V6.66667H11.05Z" fill="#80849F"/>
</svg>
