<svg width="5" height="19" viewBox="0 0 5 19" fill="none" xmlns="http://www.w3.org/2000/svg">
<path d="M2.5 0C1.83696 0 1.20107 0.22242 0.732234 0.61833C0.263393 1.01424 0 1.55121 0 2.11111C0 2.67101 0.263393 3.20798 0.732234 3.60389C1.20107 3.9998 1.83696 4.22222 2.5 4.22222C3.16304 4.22222 3.79893 3.9998 4.26777 3.60389C4.73661 3.20798 5 2.67101 5 2.11111C5 1.55121 4.73661 1.01424 4.26777 0.61833C3.79893 0.22242 3.16304 0 2.5 0ZM2.5 7.38889C1.83696 7.38889 1.20107 7.61131 0.732234 8.00722C0.263393 8.40313 0 8.9401 0 9.5C0 10.0599 0.263393 10.5969 0.732234 10.9928C1.20107 11.3887 1.83696 11.6111 2.5 11.6111C3.16304 11.6111 3.79893 11.3887 4.26777 10.9928C4.73661 10.5969 5 10.0599 5 9.5C5 8.9401 4.73661 8.40313 4.26777 8.00722C3.79893 7.61131 3.16304 7.38889 2.5 7.38889ZM2.5 14.7778C1.83696 14.7778 1.20107 15.0002 0.732234 15.3961C0.263393 15.792 0 16.329 0 16.8889C0 17.4488 0.263393 17.9858 0.732234 18.3817C1.20107 18.7776 1.83696 19 2.5 19C3.16304 19 3.79893 18.7776 4.26777 18.3817C4.73661 17.9858 5 17.4488 5 16.8889C5 16.329 4.73661 15.792 4.26777 15.3961C3.79893 15.0002 3.16304 14.7778 2.5 14.7778Z" fill="#353948"/>
</svg>
